<?xml version="1.0" encoding="UTF-8"?>
<svg id="Layer_2" xmlns="http://www.w3.org/2000/svg" version="1.1" viewBox="0 0 77.4 71.3">
  <!-- Generator: Adobe Illustrator 30.3.0, SVG Export Plug-In . SVG Version: 2.1.3 Build 182)  -->
  <defs>
    <style>
      .st0 {
        fill: #4744e9;
      }
    </style>
  </defs>
  <g>
    <path class="st0" d="M49.2,41.2c0,0-.1,0-.2,0-.1.1-.3.3-.4.4-.2.1-.3.2-.5.3,0-.2,0-.4,0-.6,0-.2,0-.3,0-.5,0,0,0-.1,0-.2,0,0-.1,0-.2-.1,0,0-.1,0-.2,0,0,0-.1,0-.2,0,0,0-.1,0-.2.2,0,0-.2.2-.3.3,0,.1-.2.2-.3.3,0,.1-.1.2-.2.2,0,0,0,0,0,0,0,0,0,0,0,0-.1.2-.3.3-.4.4-.1,0-.2.1-.3.1,0-.3.1-.5,0-.7,0-.2-.1-.4-.3-.5-.1,0-.3,0-.4,0-.1,0-.3,0-.4.2-.2,0-.3.2-.4.4-.1.1-.3.3-.4.5,0,0,0,0,0,0-.1.2-.3.3-.4.5-.1.2-.3.3-.4.4,0,0-.1.1-.2.1,0,0,0,0-.1,0,0,0,0,0,0,0,0,0,0,0,0-.2,0,0,0-.2,0-.3,0-.1,0-.3.1-.4,0-.1,0-.3.1-.4,0-.1.1-.3.2-.4,0-.1.1-.2.2-.4,0-.1.1-.3.2-.4.2,0,.3,0,.4,0,.1,0,.3,0,.4,0,0,0,.1,0,.2-.1,0,0,0-.1,0-.2,0,0,0-.1,0-.2,0,0-.1,0-.2,0,0,0-.1,0-.2,0,0,0-.1,0-.2,0,0-.1.1-.2.1-.3,0,0,0-.2,0-.2,0,0,0-.1,0-.1,0,0,0,0-.1,0,0,0,0,0-.1,0,0,0,0,0-.1.1,0,0-.1.2-.2.3,0,.1-.1.3-.2.5-.2,0-.4,0-.6.1s-.4,0-.5.1c-.2,0-.3,0-.5.1-.1,0-.2,0-.3.1,0,0,0,0-.1.1,0,0,0,.1,0,.2,0,0,0,.1,0,.2,0,0,0,0,.2,0,.3-.1.5-.2.8-.2.3,0,.5-.1.8-.1l-.2.5c-.1.2-.3.4-.4.6-.2.2-.3.4-.5.6,0,0,0,0,0,.1-.2.2-.3.3-.4.5-.1.2-.3.3-.4.3,0,0-.2,0-.2,0,0,0,0-.1,0-.3,0-.1,0-.2,0-.3,0,0,0-.1,0-.3,0,0,0-.1,0-.2,0,0,0-.1-.2-.1,0,0-.2,0-.3,0,0,0-.2,0-.3.2-.1.1-.2.2-.4.3-.1.1-.2.2-.3.3,0,0-.2.2-.2.3,0,0-.1.1-.1.2,0,0,0,0-.1.1,0,0,0,0,0,0,0,0,0,0,0,0,0,0,0,0,0-.2,0,0,0-.2.2-.3,0-.1.1-.2.2-.4,0-.1.1-.3.2-.4,0-.1.1-.2.2-.3,0,0,0-.2,0-.3,0,0,0-.1-.1-.2,0,0-.2,0-.3,0-.1,0-.2,0-.4.2-.1,0-.2.2-.3.3s-.2.2-.3.3c0,0-.2.2-.3.3,0,0-.2.2-.3.3,0,0,0,0,0,.1-.3.3-.5.6-.8.9-.3.3-.5.5-.7.6-.2.1-.3.2-.5.2-.1,0-.2,0-.3,0,0,0-.1-.1-.1-.2,0,0,0-.2,0-.3.4-.1.8-.3,1.1-.5.3-.2.5-.4.6-.7.1-.2.2-.4.2-.6,0-.2,0-.3-.2-.4,0,0-.2,0-.3,0-.1,0-.3,0-.4.2-.2.1-.3.3-.5.5-.1.2-.3.4-.4.7,0,0,0,0,0,0,0,0-.2.2-.3.2,0,0-.2,0-.3,0,0,0-.2,0-.3,0,0,0-.1,0-.2,0,0-.1.1-.3.2-.4,0-.1,0-.2,0-.3,0,0,0,0-.1-.1,0,0-.1,0-.2,0,0,0-.1,0-.2,0,0,0-.1,0-.1,0,0,0,0,0-.1.2,0,0,0,.1,0,.2,0,0,0,.2,0,.2,0,0,0,.1,0,.2,0,.1-.2.3-.3.4,0,.1-.2.2-.3.2,0,0-.1,0-.2,0,0,0,0,0-.1-.2,0,0,0-.1,0-.2,0,0,0-.2,0-.2,0,0,0-.2,0-.3,0,0,0-.2,0-.2,0,0,0-.2,0-.2,0,0,0-.1-.1-.1,0,0-.1,0-.2,0,0,0-.2,0-.2.1-.1.1-.2.2-.3.3,0,0-.2.2-.3.4,0,0,0,0-.1.1-.3.4-.6.7-.9,1-.3.3-.5.5-.7.6-.2.1-.3.2-.5.2-.1,0-.2,0-.3,0,0,0-.1-.1-.1-.2,0,0,0-.2,0-.3.4-.1.8-.3,1.1-.5.3-.2.5-.4.6-.7.1-.2.2-.4.2-.6,0-.2,0-.3-.2-.4,0,0-.2,0-.3,0-.1,0-.3,0-.4.2-.2.1-.3.3-.5.5-.2.2-.4.5-.6.9-.2.5-.4.8-.4,1.1,0,.3,0,.5.2.6.1.1.3.2.6.1.2,0,.5-.2.8-.4.3-.2.7-.5.9-.8.3-.3.5-.6.8-1,0,0,0,0,0,0,.1-.1.2-.2.2-.3,0,0,.1-.1.2-.2,0,0,0,0,0,0,0,0,0,0,0,0,0,0,0,0,0,0,0,0,0,0,0,.2,0,0,0,.2,0,.3,0,.1,0,.2,0,.3,0,.1,0,.2,0,.3,0,.1,0,.2,0,.3,0,.1.2.2.3.2.1,0,.3,0,.5-.2,0,0,.2-.2.4-.3.2-.2.3-.3.5-.5.1,0,.2,0,.4.1.1,0,.3,0,.4,0,0,0,0,0,.1,0-.1.3-.2.5-.2.7,0,.3,0,.5.2.6.1.1.3.2.6.1.2,0,.5-.2.8-.4.3-.2.7-.5.9-.8.3-.3.6-.7.9-1,0,0,0,0,0-.1,0,0,.2-.2.2-.3.1-.1.2-.2.3-.3,0,0,.1,0,.2,0,0,0,0,.1-.1.3,0,0-.1.2-.2.4,0,.2-.1.3-.2.5s-.1.3-.2.5c0,.2-.1.3-.1.4,0,.1,0,.2,0,.3,0,0,0,.2.1.2,0,0,.1,0,.2,0,0,0,.1,0,.2-.2,0-.1.1-.2.2-.4.1-.2.2-.3.3-.5.1-.2.2-.3.4-.5.1-.2.2-.3.3-.4.2-.2.3-.3.3-.2,0,0,0,.2,0,.5,0,.1,0,.3,0,.4,0,.1,0,.2.1.2,0,0,.2,0,.3,0,.1,0,.2,0,.3-.1.1,0,.2-.2.3-.3.1-.1.2-.2.3-.3.1-.1.2-.2.3-.3,0-.1.2-.2.2-.3,0,0,0-.1,0-.1l.2-.3c-.2.5-.2.8-.2,1.1,0,.3,0,.5.1.6,0,0,.2,0,.4,0,.2,0,.4-.3.7-.6h0c0,0,0,0,0,0,0,.2,0,.3,0,.4,0,.1.1.2.3.3.1,0,.3,0,.4,0,.1,0,.3,0,.4-.2.1,0,.3-.2.4-.4.1-.1.3-.3.4-.5v-.2c.3,0,.5,0,.7-.1.2,0,.4-.3.6-.5,0,0,0,0,0,0,0,0,0,0,.1-.1,0,0,0-.1.1-.2,0,0,0-.1.1-.2,0,0,0,0,.1,0,0,0,0,0,.1,0,0,0,0,0,0,.1,0,.2,0,.4,0,.5,0,.1-.1.2-.2.2-.1,0-.2.1-.3.2-.1,0-.2.2-.3.3-.1.2-.1.3-.1.4,0,.1,0,.2.2.3.1,0,.2,0,.4,0,.1,0,.3-.1.4-.3,0,0,.1-.2.2-.3,0,0,.1-.2.2-.3.2,0,.5-.2.8-.3.3-.1.5-.3.7-.6,0,0,0-.1,0-.2,0,0,0-.1,0-.1s0,0-.1,0ZM35.9,42.9c0-.1.2-.3.3-.4,0-.1.2-.2.3-.3,0,0,.2-.1.3-.1,0,0,.1,0,.2,0,0,0,0,.2-.1.3,0,.1-.2.3-.4.4-.2.1-.4.3-.7.3,0-.1.1-.3.2-.4ZM29.6,43.6c0-.1.2-.3.3-.4,0-.1.2-.2.3-.3,0,0,.2-.1.3-.1,0,0,.1,0,.2,0,0,0,0,.2-.1.3,0,.1-.2.3-.4.4-.2.1-.4.3-.7.3,0-.1.1-.3.2-.4ZM45.2,42.4c0,.2-.2.4-.4.5-.1.1-.3.2-.4.1,0,0-.1,0-.2-.1,0,0,0-.1,0-.2,0,0,0-.2,0-.3,0,0,0-.2.1-.3,0-.1.1-.2.2-.3,0,0,.1-.2.2-.3,0,0,.1-.1.2-.2,0,0,.1,0,.2,0h0c0,.1,0,.2,0,.3,0,0,0,.2,0,.3,0,0,0,.2,0,.2,0,0,0,.1.1.2h0Z"/>
    <path class="st0" d="M59.8,38.5c0,0,0,0,.1,0,0,0,0,0,.1-.1,0,0,0,0,0-.2,0,0,0-.1.1-.2,0,0,.1-.2.2-.2,0,0,0-.2.1-.2,0,0,0-.1,0-.2,0,0,0,0,0-.1,0,0,0,0-.1,0,0,0-.1,0-.1,0-.1,0-.2.2-.3.3,0,.1,0,.2-.1.3s0,.2,0,.3c0,0,0,.2,0,.2Z"/>
    <path class="st0" d="M71.2,38.5c0,0-.1,0-.2,0-.1.1-.3.3-.4.4-.2.1-.3.2-.5.3,0-.2,0-.4,0-.6,0-.2,0-.3,0-.5,0,0,0-.1,0-.2,0,0-.1,0-.2-.1,0,0-.1,0-.2,0,0,0-.1,0-.2,0,0,0-.1,0-.2.2,0,0-.2.2-.3.3,0,.1-.2.2-.3.3,0,.1-.1.2-.2.2,0,0,0,0,0,.1-.3.4-.6.7-.8.9-.3.3-.5.5-.7.6-.2.1-.3.2-.5.2-.1,0-.2,0-.3,0,0,0-.1-.1-.1-.2,0,0,0-.2,0-.3.4-.1.8-.3,1.1-.5.3-.2.5-.4.6-.7.1-.2.2-.4.2-.6,0-.2,0-.3-.2-.4,0,0-.2,0-.3,0-.1,0-.3,0-.4.2-.2.1-.3.3-.5.5-.2.2-.4.5-.6.9,0,0,0,.1,0,.2-.2.2-.4.5-.5.6-.2.2-.3.3-.4.5,0,0-.1.1-.2.2,0,0,0,0-.1,0,0,0,0,0,0-.1,0,0,0-.2,0-.4,0-.2.1-.4.2-.7.1-.3.2-.7.4-1.1.2-.4.3-.8.5-1.2.2-.4.4-.8.6-1.1,0-.1,0-.2,0-.3,0,0,0-.2,0-.2,0,0-.1,0-.2,0,0,0-.1,0-.2.2,0,0-.2.3-.3.5-.2.3-.4.6-.6,1-.2.4-.5.8-.8,1.2-.2.3-.5.6-.7.9-.1.1-.2.3-.4.4-.2.2-.3.3-.5.4,0,0,0,0-.1,0,0,0,0,0-.1,0,0,0,0,0,0-.1,0,0,0-.2,0-.3,0-.2.1-.3.1-.4,0-.1,0-.2-.1-.2s-.1,0-.2,0c0,0-.2,0-.3.1-.1,0-.2.2-.3.3-.1.1-.2.2-.3.3s-.2.2-.3.3c0,.1-.2.2-.2.3,0,0-.1.1-.1.1s0,0,0,0c0,0,0,0,0-.1,0,0,0-.2.1-.2,0,0,.2-.2.3-.4.1-.1.3-.3.4-.4.1-.1.3-.3.5-.4.2-.1.3-.2.5-.3,0,0,.1,0,.1-.1,0,0,0-.1,0-.2,0,0,0,0-.2-.1,0,0-.2,0-.3,0-.2,0-.5.2-.7.3-.2.2-.4.3-.6.5-.2.2-.3.4-.5.6-.1.1-.2.2-.3.3-.1.1-.3.2-.4.3-.1,0-.2,0-.2,0,0,0,0-.1,0-.3,0-.1.1-.3.1-.4,0,0,0-.2.1-.3,0,0,0-.1,0-.2,0,0,0-.1,0-.2,0,0,0-.1,0-.2,0,0,0,0-.1-.1,0,0-.1,0-.2,0,0,0-.1,0-.2.1-.1.1-.3.3-.4.4-.1.1-.2.3-.3.4,0,.1-.2.2-.3.3-.1.1-.3.2-.4.4-.1.1-.3.2-.4.3-.1.1-.2.2-.3.3-.2.2-.4.2-.6.3-.2,0-.3,0-.3,0,0,0,0-.2,0-.4,0-.2.1-.4.3-.6,0,0,0-.1.2-.2,0,0,.1-.1.2-.2,0,0,.2-.1.2-.2,0,0,.2,0,.3-.1.1,0,.2,0,.3,0,0,0,.1,0,.2,0,0,0,0,0,.2,0,0,0,.1,0,.2,0,0,0,0,0,.1-.1,0,0,0-.1,0-.2,0,0-.1-.1-.2-.2-.1,0-.3,0-.5,0-.2,0-.3,0-.4.1-.1,0-.3.2-.4.3-.1.1-.3.2-.4.3-.1.1-.2.3-.3.4,0,0,0,0,0,0-.1.1-.2.3-.3.3-.1,0-.2.1-.3.1,0-.3.1-.5,0-.7,0-.2-.1-.4-.3-.5-.1,0-.3,0-.4,0-.1,0-.3,0-.4.2-.2,0-.3.2-.4.4-.1.1-.2.3-.4.4,0,0,0,0,0,0-.1.1-.3.3-.4.4-.2.1-.3.2-.5.3,0-.2,0-.4,0-.6,0-.2,0-.3,0-.5,0,0,0-.1,0-.2,0,0-.1,0-.2-.1,0,0-.1,0-.2,0,0,0-.1,0-.2,0,0,0-.1,0-.2.2,0,0-.2.2-.3.3,0,.1-.2.2-.3.3,0,.1-.1.2-.2.2,0,0,0,.1,0,.2,0,0,0,.1,0,.1,0,0,0,0,.1,0,0,0,.1,0,.2-.1,0,0,0,0,.1-.1,0,0,0-.1.1-.2,0,0,0-.1.1-.2,0,0,0,0,.1,0,0,0,0,0,.1,0,0,0,0,0,0,.1,0,.2,0,.4,0,.5,0,.1-.1.2-.2.2-.1,0-.2.1-.3.2-.1,0-.2.2-.3.3-.1.2-.1.3-.1.4,0,.1,0,.2.2.3.1,0,.2,0,.4,0,.1,0,.3-.1.4-.3,0,0,.1-.2.2-.3,0,0,.1-.2.2-.3.2,0,.5-.2.8-.3,0,0,0,0,0,0,0,.1,0,.2,0,.4,0,.2,0,.3,0,.4,0,.1.1.2.3.3.1,0,.3,0,.4,0,.1,0,.3,0,.4-.2.1,0,.3-.2.4-.4.1-.1.3-.3.4-.5v-.2c.3,0,.4,0,.6-.1,0,.2,0,.3,0,.4,0,.2,0,.3.2.4,0,.1.2.2.3.2.1,0,.3,0,.5,0,.2,0,.4-.2.6-.3.1,0,.2-.2.4-.3.1-.1.3-.3.4-.4.2-.1.3-.3.4-.5.1-.1.2-.3.3-.4,0,0,0,0,0,0,0,0,0,0,.1-.1,0,0,0,0,0,0,0,0,0,0,0,.1,0,0,0,.1,0,.2,0,.2,0,.4,0,.5,0,.1,0,.2.2.3,0,0,.2,0,.3,0,.1,0,.3-.1.4-.2,0,0,.1,0,.2-.2,0,0,0,.2,0,.2,0,.1,0,.3.2.3,0,0,.2.1.3.1.1,0,.2,0,.3-.1,0-.1.2-.2.3-.4.1-.2.2-.3.4-.4.1-.1.2-.3.3-.4,0-.1.2-.2.2-.2,0,0,.1,0,.1,0,0,0,0,.1,0,.3,0,.2,0,.3,0,.5,0,.1,0,.2.1.3,0,0,.1.1.2.1.1,0,.2,0,.3,0,.1,0,.2-.1.4-.3.1-.1.3-.2.4-.4,0,0,.1-.1.2-.2,0,0,.1,0,.2-.1,0,0,.1-.2.2-.3,0,0,.1-.1.2-.2,0,0,0,0,0-.1,0,0,0,0,0,0,.2-.2.3-.4.4-.5,0-.1.2-.2.2-.2,0,0,0,0,0,.2,0,.2-.1.4-.2.6,0,.2-.2.5-.3.7,0,.3-.2.5-.2.8,0,.2-.1.5-.1.6,0,.2,0,.3,0,.4,0,.1,0,.2.1.2,0,0,.2,0,.3,0,.1,0,.2-.2.4-.3.3-.3.5-.7.8-1,0,0,.1-.1.2-.2,0,.3,0,.5.2.6.1.1.3.2.6.1.2,0,.5-.2.8-.4.3-.2.7-.5.9-.8.3-.3.6-.7.9-1,0,0,0,0,0-.1,0,0,0,0,0,0,0,0,0-.1.1-.2,0,0,0-.1.1-.2,0,0,0,0,.1,0,0,0,0,0,.1,0,0,0,0,0,0,.1,0,.2,0,.4,0,.5,0,.1-.1.2-.2.2-.1,0-.2.1-.3.2-.1,0-.2.2-.3.3-.1.2-.1.3-.1.4,0,.1,0,.2.2.3.1,0,.2,0,.4,0,.1,0,.3-.1.4-.3,0,0,.1-.2.2-.3,0,0,.1-.2.2-.3.2,0,.5-.2.8-.3.3-.1.5-.3.7-.6,0,0,0-.1,0-.2s0-.1,0-.1c0,0,0,0-.1,0ZM66.5,39.2c0-.1.2-.3.3-.4,0-.1.2-.2.3-.3,0,0,.2-.1.3-.1,0,0,.1,0,.2,0,0,0,0,.2-.1.3,0,.1-.2.3-.4.4-.2.1-.4.3-.7.3,0-.1.1-.3.2-.4ZM54.5,41.2c0,.2-.2.4-.4.5-.1.1-.3.2-.4.1,0,0-.1,0-.2-.1,0,0,0-.1,0-.2,0,0,0-.2,0-.3,0,0,0-.2.1-.3,0-.1.1-.2.2-.3,0,0,.1-.2.2-.3,0,0,.1-.1.2-.2,0,0,.1,0,.2,0h0c0,.1,0,.2,0,.3,0,0,0,.2,0,.3,0,0,0,.2,0,.2,0,0,0,.1.1.2h0Z"/>
    <path class="st0" d="M31.3,33s2.9-1.4.9-.8l-3.2.9c1.2-1.8,2.5-3.5,3.8-5.2,1.4-1.8,2.8-3.5,4-5.2.2-.3.2-.5-.1-.6-.3-.1-.6-.2-1-.2-.4,0-.9,0-1.3.2-.5.1-.8.3-.9.5-.4.5-1,1.1-1.6,2-.6.9-1.3,1.9-2.1,2.9-.7,1.1-1.5,2.2-2.2,3.4-.7,1.2-1.4,2.2-2,3.3l-11.2,3.2c-1.6.4-3.3.9-5,1.4.5-1,1-2.1,1.7-3.2.6-1.1,1.3-2.2,2-3.2.7-1,1.3-1.9,2-2.8.6-.8,1.2-1.5,1.7-1.9.2-.2.3-.4.3-.6,0-.1-.2-.2-.4-.2-.2,0-.5,0-.8,0-.3,0-.7.1-1.1.3-.4.1-.7.3-1,.4-.3.2-.5.3-.7.5-.7.8-1.4,1.7-2,2.7-.6,1-1.1,1.9-1.6,2.9-.5,1-1,2-1.4,3-.5,1-.9,2-1.4,2.9l-2,.4c-.4,0-.8.3-1.1.7-.3.4-.5.7-.6,1.1-.1.4-.2.7-.2.9,0,.3,0,.4.2.3.2-.1.4-.2.7-.4.3-.1.6-.3.8-.4.3-.1.6-.3.9-.4.3-.1.5-.2.7-.3,0,.2-.2.5-.4.8-.2.4-.4.7-.6,1.1-.2.4-.3.7-.5,1-.1.3-.2.5,0,.7.2.3.4.5.6.5.2,0,.5-.1.9-.4.4-.3.7-.9,1.2-1.6.4-.7.9-1.7,1.5-2.9,1.6-.5,3.3-1.1,4.9-1.6v.2c-.1,0,11.4-3.8,11.4-3.8-.4.6-.9,1.3-1.3,2.1-.5.8-.9,1.7-1.3,2.7-.4,1-.7,1.9-.9,2.9-.2,1-.3,1.8-.2,2.6,0,.5.2.8.5.9.3.1.6.2.9,0,.3,0,.6-.2.9-.4.3-.2.4-.3.4-.5.2-2.1.7-4.2,1.7-6.2.8-1.9,1.8-3.6,2.9-5.4l2.8-1Z"/>
  </g>
  <path class="st0" d="M74.8,33.2c0-.5-.4-.3-.7,0-.2.2-.4.3-.4.3h0c0,0-.2.1-.2.2-.3.3-.5.4-.6.3-.1,0,0-.2,0-.6.1-.3.3-.7.5-1.1.2-.4.3-.8.5-1.2.1-.4.2-.6.1-.8,0-.2-.2-.3-.3-.4-.2-.1-.4-.2-.6-.3-.2,0-.4-.1-.6-.1-.2,0-.3,0-.4,0,0,0-.3.3-.6.6-.3.4-.6.8-1,1.2-.4.4-.7.9-1,1.2-.3.4-.5.6-.6.7,0,0,0-.2.1-.4,0-.2.1-.4.2-.6s.1-.4.1-.6c0-.2,0-.4,0-.5,0-.1-.1-.3-.3-.4-.1-.2-.3-.3-.4-.4-.2,0-.3-.1-.5-.2-.2,0-.3,0-.4.2-.2.2-.4.5-.5.9,0,.2-.2.5-.2.7-.9.8-1.8,1.5-2.6,2-.9.5-1.6.7-2,.6.4-.4.8-.8,1.1-1.1.3-.3.5-.6.8-.9.2-.3.3-.6.4-.8,0-.2,0-.4-.2-.6-.1-.2-.3-.4-.5-.5-.2-.1-.4-.2-.7-.3-.2,0-.4-.1-.6,0-.2,0-.5.1-.8.3-.3.2-.6.4-.8.7-.3.3-.5.6-.7.9,0,0-.1.2-.1.3-.2.1-.4.3-.8.6-.5.3-1,.6-1.5.9-.5.3-1,.5-1.4.7-.4.2-.7.2-.7.2-.1-.1-.2-.3-.1-.6,0-.2.1-.5.2-.7.4-.2.7-.3,1.1-.5.4-.1.7-.3,1-.4.3-.1.5-.2.7-.3.2-.1.3-.2.3-.3,0-.1,0-.3-.1-.4,0-.2-.2-.3-.3-.4-.1-.1-.3-.2-.4-.3-.2,0-.3,0-.4,0-.2.1-.5.4-1,.8-.5.4-.9.8-1.4,1.3-.6.5-1.2,1.1-1.8,1.8l.4-1.2c.4-.9.9-1.9,1.5-3,.6-.9,4.5-7.6,8.3-10.5,0,0-.4-.3-1-.4-.1,0-.2,0-.3-.1-.3,0-.6-.1-.9-.1-.1,0-.3,0-.4,0,0,0,0,0,0,0,0,0,0,0,0,0-.4,0-.8.3-1.1.6h0c-.2.2-.4.4-.7.6-.5.6-1.1,1.2-1.6,2-.5.8-1.1,1.6-1.6,2.5-.5.9-1,1.8-1.5,2.8-.5.9-.9,1.9-1.3,2.8-.4.9-.7,1.7-1,2.5,0,.1-.1.3-.2.4-.3.3-.5.6-.8.8-.3.3-.6.6-.9.9-.3.3-.5.5-.7.6-.2.2-.3.2-.4.2,0,0,0-.2,0-.4,0-.2.2-.5.4-.8.1-.3.3-.6.4-.9.1-.3.2-.5.2-.7,0-.1,0-.3-.2-.4-.1-.1-.2-.2-.4-.3-.2,0-.3-.1-.5-.2-.2,0-.4,0-.5,0-.2,0-.4.1-.7.4,0-.2-.2-.3-.4-.4-.2-.1-.4-.2-.6-.3-.2,0-.4-.1-.6-.1-.2,0-.4,0-.5,0-.2,0-.5.2-.9.6-.4.3-.7.8-1,1.2-.1.2-.2.3-.3.5-.2.1-.5.3-.9.6-.5.3-.9.6-1.4.9-.5.3-.9.6-1.3.8-.4.2-.6.3-.7.3-.1,0-.1-.2,0-.4,0-.2.1-.4.2-.7,0-.2.2-.4.3-.7.3-.6.5-1.2.8-1.7.6-1,6.3-10.6,8.7-11.9,0,0,.3-.3,0-.4,0,0-.2,0-.3-.1,0,0,0,0,0,0-.1,0-.3,0-.4-.1,0,0,0,0-.1,0-.3,0-.6,0-.9,0,0,0,0,0,0,0-.4,0-.6,0-.8.2,0,0-.1,0-.2.1-.3.2-.6.4-.9.7h0c-.3.3-.6.5-.9.9-.7.8-1.4,1.8-2.1,2.8-.7,1.1-1.4,2.2-2,3.4-.6,1.2-1.2,2.3-1.7,3.4-.5,1.1-.9,2-1.2,2.8,0,0,0,0,0,0-.3.3-.5.6-.8.8-.3.3-.6.6-.9.9-.3.3-.5.5-.7.6-.2.2-.3.2-.4.2,0,0,0-.2,0-.4,0-.2.2-.5.4-.8.1-.3.3-.6.4-.9.1-.3.2-.5.2-.7,0-.1,0-.3-.2-.4-.1-.1-.2-.2-.4-.3-.2,0-.3-.1-.5-.2-.2,0-.4,0-.5,0-.2,0-.4.1-.7.4,0-.2-.2-.3-.4-.4-.2-.1-.4-.2-.6-.3-.2,0-.4-.1-.6-.1-.2,0-.4,0-.5,0-.2,0-.5.2-.9.6-.4.3-.7.8-1,1.2-.3.5-.6.9-.8,1.4-.2.5-.2.9-.1,1.2.1.3.3.6.6.8.3.2.6.4.9.5.3.1.6.2,1,.2.3,0,.6,0,.8,0,.2-.1.5-.3.7-.4.2-.2.4-.4.7-.6.4.2.8.4,1.3.5.5,0,.8,0,1.1,0,.2,0,.4-.2.7-.6.3-.3.5-.7.8-1,0-.1.2-.3.3-.4,0,.2.2.4.3.6.2.2.5.4.8.5.3.1.6.2,1,.2.3,0,.6,0,.9-.1.3,0,.6-.3.9-.5.3-.2.7-.5,1-.8.2-.2.5-.5.7-.7,0,.2,0,.3,0,.5.1.3.3.6.6.8.3.2.6.4.9.5.3.1.6.2,1,.2.3,0,.6,0,.8,0,.2-.1.5-.3.7-.4.2-.2.4-.4.7-.6.4.2.8.4,1.3.5.5,0,.8,0,1.1,0,.2,0,.4-.2.7-.6.2-.2.4-.5.6-.8,0,0,0,0,0,0,0,.1,0,.3.2.4.1.1.3.2.5.3.2,0,.4.1.5.1.2,0,.3,0,.5-.2,0-.4.2-.8.4-1.2.2-.4.5-.7.8-.9,0,.1,0,.2,0,.3,0,.1,0,.2.1.3,0,0,.2.2.4.4s.4.3.7.5c.3.1.6.2.9.3.3,0,.6,0,.9-.2.3-.2.6-.4,1.1-.7.4-.3.9-.7,1.3-1,.3-.3.6-.5.9-.8,0,.3.2.5.4.8.3.4.7.7,1.1,1,.4.3.8.5,1.3.6.4.1.8.2,1,0,.4-.1.8-.3,1.2-.6.4-.3.8-.7,1.1-1.1.2-.3.4-.5.6-.8,0,.4,0,.6,0,.7,0,.3.3.6.6.7.3.1.6.2.8.2.2,0,.4-.2.7-.5.3-.3.7-.7,1-1.1.3-.4.7-.9,1.3-1.6,0,0,0,.1-.1.3,0,.2-.2.4-.3.7s-.2.5-.2.7c0,.2,0,.4,0,.5,0,.2.2.4.4.6.2.2.6.3.9.4.4,0,.7.1,1.1.2.4,0,.7,0,1-.2.2,0,.4-.3.8-.7.7-1,.4-1.3.4-1.3ZM32.4,36c-.2.4-.4.8-.6,1.2-.3.4-.5.8-.8,1-.3.3-.6.4-.8.3-.1,0-.1-.2,0-.4,0-.2.2-.5.3-.8.1-.3.3-.6.5-1,.2-.3.4-.6.6-.9.2-.2.4-.4.6-.5.2-.1.3,0,.4.1,0,.2,0,.5-.2.9ZM46.8,34.4c-.2.4-.4.8-.6,1.2-.3.4-.5.8-.8,1-.3.3-.6.4-.8.3-.1,0-.1-.2,0-.4,0-.2.2-.5.3-.8.1-.3.3-.6.5-1,.2-.3.4-.6.6-.9.2-.2.4-.4.6-.5.2-.1.3,0,.4.1,0,.2,0,.5-.2.9ZM61.5,34c-.1-.2-.1-.4,0-.7.2-.3.4-.6.6-.9.3-.3.5-.5.8-.7.3-.2.4-.2.5-.2,0,0,0,.2-.1.4-.2.2-.4.5-.6.8-.2.3-.5.6-.7.8-.2.2-.4.4-.5.5Z"/>
</svg>