<?xml version="1.0" encoding="UTF-8"?>
<svg id="Layer_2" xmlns="http://www.w3.org/2000/svg" version="1.1" viewBox="0 0 77.4 71.3">
  <!-- Generator: Adobe Illustrator 30.3.0, SVG Export Plug-In . SVG Version: 2.1.3 Build 182)  -->
  <defs>
    <style>
      .st0 {
        fill: #4744e9;
      }
    </style>
  </defs>
  <g id="Capa_1">
    <g>
      <g>
        <rect class="st0" x="14.8" width="5.6" height="64.9"/>
        <polygon class="st0" points="11.2 27.9 5.6 27.9 5.6 4.6 11.2 4.6 11.2 0 5.6 0 4.5 0 0 0 0 64.9 5.6 64.9 5.6 32.5 11.2 32.5 11.2 27.9"/>
        <polygon class="st0" points="24 0 24 64.9 28.3 64.9 35.3 64.9 35.3 60.3 29.6 60.3 29.6 32.5 35.3 32.5 35.3 27.9 29.6 27.9 29.6 4.6 35.3 4.6 35.3 0 29.6 0 24 0"/>
        <path class="st0" d="M49.9.1h-3s-2.5,0-2.5,0h0c0-.1-5.6-.1-5.6-.1v64.9h5.6v-13.3h0c0,0-.9,1.5-.9,1.5l-2.8,1.8,3.8-5.3v-15.7h2c1.1,0,2,.9,2,2.1v.3s0,7.9,0,7.9l.3-.9,1-1.2,1-.8.2-1.1,1.1-.7.7-1.4,1.2-1v-.4c0-2.7-2.2-4.8-4.8-4.8,2.7,0,4.8-2.2,4.8-4.8V4.4c0-2.3-1.9-4.2-4.2-4.2h0ZM48.6,26.7v.9c0,1.1-.9,2.1-2,2.1h-2V4.6h2.7c.8,0,1.4.6,1.4,1.4v.8c0,0,0,19.9,0,19.9h0Z"/>
        <path class="st0" d="M59.2,52.1l1.1-1.3.4-.2v-.7c.1,0,.6-.1.6-.1l.6-1.4.5-.8h.4s.8-1.5.8-1.5l1.3-.9,1.8-2.5.8-.5.3-.8.8-.7s.7-1.2.7-1c0,.1.2.5.2.5l.3-.7.9-.6.6-.7.4-.2.5-.6-.7-7.6v.2c-.1,0-1.4,1.3-1.4,1.3v.9c-.1,0-1,.5-1,.5l-.7,1.2-.9.5-.3,1.4h-.6c0,.1-.2,1-.2,1l-.8.3-.3,1.4h-.8l-.9,1.3-.9.7-.7,1.6-1.1.5-.6,2.1-.9.6-.7,8.1c.2-.2.4-.5.4-.5v-.7s0,0,0,0Z"/>
        <polygon class="st0" points="71.1 40 70.7 40.9 69.2 42.4 68.2 43.6 67.8 45 67.2 45.5 66.8 46.6 65.9 47.2 65.7 48.9 64.8 49 64 49.7 63.5 51.3 62.7 51.6 62.3 52.8 61.8 52.6 59.6 54.8 59.2 54.9 58.7 55.2 58.5 55.5 57.7 64.9 63.4 64.9 64.6 51 67.8 51 69 64.9 74.6 64.9 72.3 38.4 71.1 40"/>
        <polygon class="st0" points="61 40 61.6 39.4 62 38.3 63.5 36.1 64.4 36 65.2 34.3 66.1 34 66.7 33.1 66.8 32.9 67.7 32.2 67.8 31.6 68.3 31.3 68.8 30.6 71.4 28.2 73.3 26.4 74.4 25.2 71.4 27.6 70.8 21 70 21.8 69.5 22.8 67.9 24.4 67.4 25.8 66.7 26.6 66.5 27.5 65.5 27.8 63.7 30.4 62.8 30.9 62.3 32.2 61.7 32.4 60.5 33.6 59.8 40.6 60.4 40 61 40"/>
        <polygon class="st0" points="70.5 17.3 69 0 63.4 0 60.8 29.5 61.5 28.7 62 27.2 62.6 26.6 63.3 26.7 64 24.7 65.1 24 67 22.3 68.1 20.9 68.7 19.5 69.7 19.5 69.8 19.5 70.6 18.1 70.6 18.1 71.7 17.1 73.3 15.5 74 15.4 74.2 14.6 77.4 11.7 77.4 11.6 70.5 17.3"/>
        <polygon class="st0" points="52.2 42.8 51.3 44.4 51 45.5 49.8 45.7 48.9 47.1 48.6 47.3 48.6 56 48.6 56.2 48.6 64.8 54.2 64.8 54.2 51 54.2 49.3 54 49.5 54 49.7 53.7 49.8 53.5 50 52.6 50.8 52.2 51 52.2 51 52 51.2 51.7 51 51.5 51.6 50.8 52.3 52.1 50.3 52.6 49.8 52.5 49.5 52.9 49.3 53.1 48.9 53.5 48.8 53.5 48.8 53.5 48.7 54 48.2 54.1 47.9 54.2 47.9 54.2 47.7 54.2 41.4 52.9 42.9 52.2 42.8"/>
      </g>
      <g>
        <path class="st0" d="M10,69.2c.2,0,.4.1.5.4l.7-.4c0-.2-.2-.4-.5-.6-.2-.1-.5-.2-.8-.2s-.6,0-.8.2-.4.3-.5.5c-.1.2-.2.5-.2.7s0,.5.2.7c.1.2.3.4.5.5s.5.2.8.2.6,0,.8-.2c.2-.1.4-.3.5-.6l-.7-.4c-.1.2-.3.4-.5.4s-.3,0-.4-.2-.2-.3-.2-.5,0-.4.2-.5.2-.2.4-.2h0Z"/>
        <path class="st0" d="M12.5,68.8v-.3h-.9v2.7h.9v-1.2c0-.2,0-.4.2-.5s.3-.2.5-.2.1,0,.2,0v-.9c-.2,0-.4,0-.5,0s-.3.2-.4.3Z"/>
        <path class="st0" d="M16.2,69.1c-.1-.2-.3-.4-.5-.5s-.4-.2-.7-.2-.5,0-.8.2c-.2.1-.4.3-.5.5s-.2.4-.2.7,0,.5.2.7c.1.2.3.4.5.5s.5.2.8.2c.5,0,.8-.1,1.1-.4,0,0,0,0,0,0l-.5-.5c0,0-.2.1-.3.2s-.2,0-.3,0-.3,0-.4-.1c-.1,0-.2-.2-.2-.3h1.9c0-.2,0-.2,0-.2,0-.3,0-.5-.2-.7h0s0,0,0,0ZM14.5,69.6c0-.1,0-.3.2-.3.1,0,.2-.1.4-.1s.3,0,.4.1c.1,0,.2.2.2.3h-1.1Z"/>
        <path class="st0" d="M17.9,68.4c-.2,0-.4,0-.6,0-.2,0-.4.1-.5.2l.2.4v.3c.2,0,.3-.1.5-.2s.3,0,.4,0c.4,0,.5.1.6.4h-.5c-.4,0-.7,0-.9.2-.2.1-.3.3-.3.6s0,.3.1.4c0,0,0,0,0,0,0,.1.2.2.3.3.1,0,.3.1.5.1.4,0,.6-.1.8-.4v.3h.9v-1.5c0-.4-.1-.7-.4-.9s-.6-.3-1-.3h0Z"/>
        <path class="st0" d="M21.2,70.5c0,0-.1,0-.2,0,0,0,0-.1,0-.2v-.9h.6v-.7h-.6v-.7h-.9v.7h-.4v.7h.4v.9c0,.3,0,.6.3.8.2.2.5.3.8.3s.2,0,.4,0,.2,0,.3-.1l-.2-.7c0,0-.2,0-.3,0h0Z"/>
        <path class="st0" d="M22.5,67.2c-.2,0-.3,0-.4.2s-.2.2-.2.4,0,.3.2.4c.1,0,.2.2.4.2s.3,0,.4-.2.2-.2.2-.4,0-.3-.2-.3-.2-.1-.4-.1h0Z"/>
        <rect class="st0" x="22" y="68.5" width=".9" height="2.7"/>
        <polygon class="st0" points="24.8 70.2 24.1 68.5 23.2 68.5 24.3 71.2 25.2 71.2 26.3 68.5 25.5 68.5 24.8 70.2"/>
        <rect class="st0" x="26.6" y="68.5" width=".9" height="2.7"/>
        <path class="st0" d="M27,67.2c-.2,0-.3,0-.4.2s-.2.2-.2.4,0,.3.2.4c.1,0,.2.2.4.2s.3,0,.4-.2.2-.2.2-.4,0-.3-.2-.3-.2-.1-.4-.1h0Z"/>
        <path class="st0" d="M30,68.7c-.2-.2-.4-.3-.7-.3s-.5,0-.7.2-.4.3-.5.5-.2.5-.2.7,0,.5.2.7.3.4.5.5c.2.1.4.2.7.2.3,0,.6-.1.8-.3v.3h.9v-3.7h-.9v1.2h0ZM29.8,70.3c-.1.1-.2.2-.4.2s-.3,0-.4-.2-.2-.3-.2-.5,0-.4.2-.5c.1-.1.2-.2.4-.2s.3,0,.4.2c.1.1.1.3.1.5s0,.4-.2.5Z"/>
        <path class="st0" d="M33.6,68.8c-.2-.2-.6-.3-1-.3s-.4,0-.6,0c-.2,0-.4.1-.5.2l.2.4v.3c.2,0,.3-.1.5-.2.1,0,.3,0,.4,0,.4,0,.5.1.6.4h-.5c-.4,0-.7,0-.9.2-.2.1-.3.3-.3.6s0,.3.1.4c0,0,0,0,0,0,0,.1.2.2.3.3.1,0,.3.1.5.1.4,0,.7-.1.8-.4v.3h.9v-1.5c0-.2,0-.4,0-.6,0-.2-.1-.3-.2-.4h0Z"/>
        <path class="st0" d="M36.5,68.7c-.2-.2-.4-.3-.7-.3s-.5,0-.7.2-.3.3-.5.5h0c-.1.2-.2.5-.2.7s0,.5.2.7c0,0,.1.2.2.3,0,0,.2.2.3.2.2.1.4.2.7.2.3,0,.6-.1.8-.3v.3h.9v-3.7h-.9v1.2h0ZM36.3,70.3c0,.1-.2.2-.4.2s-.3,0-.4-.2-.2-.3-.2-.5,0-.4.2-.5c0-.1.2-.2.4-.2s.3,0,.4.2c0,.1.2.3.2.5s0,.4-.2.5Z"/>
        <path class="st0" d="M39.9,67.2c-.2,0-.3,0-.4.2s-.2.2-.2.4,0,.3.2.4c0,0,.2.2.4.2s.3,0,.4-.2.2-.2.2-.4,0-.3-.2-.3-.2-.1-.4-.1h0Z"/>
        <rect class="st0" x="39.4" y="68.5" width=".9" height="2.7"/>
        <path class="st0" d="M42.7,68.4c-.2,0-.3,0-.5,0-.1,0-.3.1-.4.2v-.3h-.9v2.7h.9v-1.3c0-.2,0-.4.1-.5,0-.1.2-.2.4-.2.3,0,.4.2.4.6v1.4h.9v-1.6c0-.4,0-.7-.3-.9-.2-.2-.5-.3-.8-.3h0Z"/>
        <path class="st0" d="M46.2,68.7c-.2-.2-.4-.3-.7-.3s-.5,0-.7.2-.3.3-.5.5-.2.5-.2.7,0,.5.2.7.3.4.5.5.4.2.7.2c.3,0,.6-.1.8-.3v.3h.9v-3.7h-.9v1.2h0ZM46.1,70.3c0,.1-.2.2-.4.2s-.3,0-.4-.2-.2-.3-.2-.5,0-.4.2-.5c0-.1.2-.2.4-.2s.3,0,.4.2c0,.1.2.3.2.5s0,.4-.2.5Z"/>
        <path class="st0" d="M49.8,68.6c-.2-.1-.5-.2-.8-.2s-.5,0-.8.2-.4.3-.5.5c-.1.2-.2.5-.2.7s0,.5.2.7c0,.1.1.2.2.3,0,0,.2.2.3.2.2.1.5.2.8.2s.5,0,.8-.2.4-.3.5-.5c.1-.2.2-.5.2-.7s0-.5-.2-.7c-.1-.2-.3-.4-.5-.5h0Z"/>
        <path class="st0" d="M54.5,68.4c-.2,0-.4,0-.5.1s-.3.2-.4.3c0-.1-.2-.2-.4-.3s-.3-.1-.5-.1-.3,0-.4,0c-.1,0-.2.1-.3.2v-.3h-.9v2.7h.9v-1.3c0-.2,0-.4.1-.5s.2-.2.3-.2c.3,0,.4.2.4.6v1.4h.9v-1.3c0-.2,0-.4.1-.5s.2-.2.3-.2.2,0,.3.1,0,.2,0,.4v1.4h.9v-1.6c0-.4,0-.7-.3-.9-.2-.2-.5-.3-.8-.3h0Z"/>
        <path class="st0" d="M58.3,68.8c-.2-.2-.6-.3-1-.3s-.4,0-.6,0c-.2,0-.4.1-.5.2l.3.7c0,0,.2-.1.3-.2h0c.1,0,.2,0,.3,0,.4,0,.5.1.6.4h-.5c-.1,0-.3,0-.4,0-.2,0-.4,0-.5.2-.2.1-.3.3-.3.6s0,.3.1.4c0,.1.2.2.3.3,0,0,.2,0,.3,0,0,0,.1,0,.2,0,.4,0,.7-.1.8-.4v.3h.9v-1.5c0-.2,0-.4-.1-.6,0-.1-.1-.3-.2-.3h0Z"/>
        <polygon class="st0" points="62.6 69.1 62.6 71.2 63.6 71.2 63.6 69.1 63.6 67.5 62.6 67.5 62.6 69.1"/>
        <path class="st0" d="M66.2,68.6c-.2-.1-.4-.2-.7-.2s-.5,0-.8.2c-.2.1-.4.3-.5.5,0,0,0,0,0,0-.1.2-.2.4-.2.7s0,.5.2.7.3.4.5.5.5.2.8.2c.5,0,.9-.2,1.1-.4l-.5-.5c0,0-.2.1-.3.2s-.2,0-.3,0-.3,0-.4-.1c-.1,0-.2-.2-.2-.3h1.9c0-.2,0-.2,0-.2,0-.3,0-.5-.2-.8s-.3-.4-.5-.5h0ZM64.9,69.6c0-.1,0-.3.2-.3,0,0,.2-.1.4-.1s.3,0,.4.1c0,0,.2.2.2.3h-1.1Z"/>
        <path class="st0" d="M62,69.1c-.1-.2-.3-.4-.5-.5-.2-.1-.4-.2-.7-.2s-.6,0-.7.3v-1.2h-.9v3.7h.9v-.3c.2.2.4.3.8.3s.5,0,.7-.2c.2-.1.3-.3.5-.5s.2-.5.2-.7,0-.5-.2-.7h0Z"/>
      </g>
    </g>
  </g>
</svg>