<?xml version="1.0" encoding="UTF-8"?>
<svg id="Layer_2" xmlns="http://www.w3.org/2000/svg" version="1.1" viewBox="0 0 77.4 71.3">
  <!-- Generator: Adobe Illustrator 30.3.0, SVG Export Plug-In . SVG Version: 2.1.3 Build 182)  -->
  <defs>
    <style>
      .st0 {
        fill: #4744e9;
      }
    </style>
  </defs>
  <g>
    <path class="st0" d="M5.5,30.9h.2c0,0-.2,0-.2,0h0Z"/>
    <path class="st0" d="M65.9,30.6v2.6c-.8-2-2.9-2.6-5-2.6h-5.8v12.2s-4.5-12.1-4.5-12.1h-4.2s-4.1,10.9-4.1,10.9v-4.8h-3.8v3.1c-.1,0-.3,0-.5,0-.9,0-2.6-.5-2.6-2.8s1.6-2.9,3.4-2.9,2.4.3,3.3.8v-3.7c-1.1-.5-2.5-.7-4-.7-3.1,0-6.1,1.6-6.7,5.1-.4-2.2-1.7-4-4.1-4.8.2-.4.5-1,.9-1.4.7-1,1.3-1.5,2.3-2.3-.3.4-.6,1.1-.6,1.5,0,.1.4.5.6.5.5,0,1.2-.6,1.7-1.1-.6,1.2-.8,1.8-.7,2.1,0,.1,0,.2,0,.2,0,.2.4.4.5.4.1,0,.2,0,.4,0,.4-.2,1.3-1.2,2-2-.1.3-.2.7-.1,1,0,.5.4.9,1,.9,1.3,0,3.6-2,3.8-3.6,0,0,.2,0,.4,0,.2,0,.4,0,.7-.2.6-.2,1-.7,1.1-.9-.1,0-.5.5-1.3.6-.5,0-.8-.2-1.1-.5,0,0-.2-.1-.3,0-.2,0-.5.4-.5.5,0,.1.1.5.2.6-.7,1.3-2.3,3.4-3,3.2-.7-.2,1.5-4.5,3.7-4.7,0,0,.2,0,.3,0,0,0,0,0,0,0,0,0-.3-.2-.8-.1-1.4.1-3.1,1.3-3.9,2.7-.8.9-1.9,2-2.3,2,.2-.8,1-2.4,1.9-4.1.4-.8.8-1.4,1.2-2,2-.5,4.2-.7,6.6-.7.1,0,0,0,0,0-1.8-.2-4.3-.1-6.3.2.5-.7,1.1-1.8,1.5-1.6.2.1-.3-.5-1-.5-.1,0-.3.1-.4.3-.3.3-.6.7-1.4,2-1.3.3-2.6.7-2.6,1.3,0,.4.5.6.7.6-.3-.2.3-.8,1.5-1.1-.4.6-.7,1.2-1,1.7-.3.6-.6,1.1-.8,1.6-.6.6-1.2,1-1.7,1.1.3-1,1.3-1.9,1.5-2.2,0-.1-.5-.6-.6-.6-.3,0-.6.3-1,.7-1,.8-2.1,2-2.7,2.8.2-.5.6-1.1.9-1.5.3-.5.7-1,.9-1,0,0,.1,0,.1,0,0-.3-.5-.7-.8-.7,0,0,0,0-.2,0-.3.3-.8.9-1.1,1.6,0,0-.1.2-.2.3-.8.8-1.9,1.8-2.8,2.4,0,0,0,0,0,0-.5,0-1,0-1.4.1,0-.3.2-.6.4-.8,1.4-.1,3.5-2.1,3.5-2.8,0-.3-.6-.6-.8-.6-.5,0-1.6.5-2.5,1.4-.7.7-1.3,1.5-1.5,2.2,0,.3-.1.5-.1.8-2.9.9-4.3,3.3-4.3,6.1s0,1.1.2,1.6c-.3-1-1.1-1.7-2.2-2,1.3-.5,1.8-1.4,1.8-2.7s-.5-2.1-1.5-2.6c.5-.5,1.1-1.2,1.5-1.7,0,.2-.2.5-.3.7-.3.8-.3,1.2-.2,1.3.1.2.4.4.5.4.1,0,.3.1.4,0-.5,0-.1-.8.2-1.3,1.1-2,3.4-3.4,3.6-3.4,0,.6-2,4-3.2,4.1-.2,0-.5-.2-.5-.3,0,0,0,0,0,0,0,.4.6.7,1.1.6,1.7-.1,3.8-3.3,3.7-4.4,0-.2-.5-.6-.6-.6-.7-.2-2.7,1.6-3.5,2.9.8-1.9,1.8-3.5,2.9-5.1.7-1,1.2-1.6,1.5-1.4.2.1-.3-.6-1-.5-.1,0-.3.1-.4.3-.5.5-1,1.1-1.3,1.7-.8,1.3-1.8,3-2.5,4.4-.6.6-1.5,1.6-2.1,2.1-.1,0-.3-.1-.4-.1.3-.9,1-2.2,1.8-3.6.5-.9,1-1.7,1.4-2.4.5-.7,1.2-1.9,1.6-1.7.2.1-.3-.5-1-.5-.1,0-.3.1-.4.3-.3.3-.6.7-.9,1.2-.6.9-1.2,2-1.9,3.2-.2.4-.4.8-.6,1.2-.5-.1-1.2-.2-1.7-.2.8-2.4,2.1-4.9,2.7-5.7.2-.2.3-.4.6-.4,0-.1-.5-.5-.9-.5-.3,0-.5.3-.9.8-.6.7-3.7,4.5-4.9,5.9h0c-1.6.2-6,.9-5.8,1.9,0,.5.8.8.7.6,0-.2,1.4-1.3,4.5-1.9-.4.4-.9,1-1.5,1.6h-1.1s-1.3,0-1.3,0c.6.1,1.1.6,1.3,1.2-1.6,1.6-3.4,3.1-5,3.3-.5,0-.9-.1-1-.7,0-.2,0-.4.2-.5-.2,0-.5.4-.4.9,0,.9.9,1.2,1.5,1.2,1.4-.1,3.1-1.6,4.6-3.3v9c0,.8-.6,1.4-1.3,1.5h1.3s6,0,6,0c2.6,0,5.1-.7,5.1-3.6s0-.4,0-.6c.7,2.5,2.9,4.4,6.4,4.4s6.1-2.2,6.6-5.2c.6,3.5,3.6,5.2,6.8,5.2s2.5-.2,3.7-.6l-.2.5h4.2l.6-1.8h4.3l.6,1.8h4.2,0s3.8,0,3.8,0v-3.8s1,0,1,0l2.6,3.8h4.5l-3.3-4.4c1.2-.6,2.1-2.1,2.1-4s0,0,0-.2c.2-.6.8-1.1,1.5-1.1h0s0,0,0,0h1.6v9.8h4.1v-9.8h1.8,0s0,0,0,0c.8,0,1.4.6,1.5,1.3v-1.3h0v-3.1h-10.7ZM26.6,26.9c0,.5-1.9,2.6-2.9,2.8.3-.7,1.6-2.3,2.9-2.8ZM14.6,23.8c-.6,1-1.7,3.6-2.1,4.7-.6,0-1.2,0-1.7,0,3.6-4.6,3.8-4.7,3.9-4.8ZM12.9,40.3h-1.7v-2h1.7c.8,0,1.2.4,1.2,1s-.4,1-1.2,1ZM11.1,35.8v-1.8h1.5c.7,0,1,.4,1,.9s-.3.9-1,.9h-1.5ZM14.4,31c-.4,0-.7,0-1.1,0h-4.5c.6-.7,1.1-1.3,1.5-1.7.6-.1,1.1-.2,1.7-.2.2,0,.3,0,.5,0-.2.5-.4,1.2-.6,2h1.1c.2-.8.5-1.5.6-2h0c.7,0,1.3,0,1.7,0-.4.9-.7,1.6-.9,2ZM27.1,28.8c-.3.5-.5,1.1-.7,1.5,0,.2-.1.4-.1.5-.4,0-.7-.1-1.2-.1.7-.6,1.5-1.3,2-1.9ZM24.6,39.9c-1.6,0-2.5-1.1-2.5-2.8s.9-2.8,2.5-2.8,2.5,1.1,2.5,2.8-.9,2.8-2.5,2.8ZM47.2,38.7l.9-2.6c.1-.5.2-1,.4-1.6,0,.6.2,1.1.4,1.6l.9,2.6h-2.4ZM60.8,36.6h-1.6v-2.4h1.6c.8,0,1.3.5,1.3,1.2s-.5,1.2-1.3,1.2Z"/>
  </g>
  <g>
    <path class="st0" d="M11.5,45.8h1.3c.3,0,.6,0,.9.2.3.1.4.3.6.5.1.2.2.5.2.8s0,.6-.2.8c-.1.2-.3.4-.6.5-.3.1-.5.2-.9.2h-1.3v-3ZM12.8,48.4c.2,0,.4,0,.6-.1.2,0,.3-.2.4-.4,0-.2.1-.3.1-.5s0-.4-.1-.5c0-.2-.2-.3-.4-.4-.2,0-.4-.1-.6-.1h-.7v2.1h.7Z"/>
    <path class="st0" d="M17.6,47.9h-1.8c0,.2.1.3.2.4.1,0,.3.1.5.1s.5,0,.6-.3l.3.3c-.1.1-.2.2-.4.3-.2,0-.3,0-.5,0s-.5,0-.7-.2c-.2-.1-.3-.2-.4-.4-.1-.2-.2-.4-.2-.6s0-.4.2-.6c.1-.2.2-.3.4-.4.2-.1.4-.2.6-.2s.4,0,.6.1c.2,0,.3.2.4.4,0,.2.1.4.1.6s0,0,0,.2ZM16,47.1c-.1.1-.2.2-.2.4h1.3c0-.2,0-.3-.2-.4-.1-.1-.3-.2-.4-.2s-.3,0-.4.2Z"/>
    <path class="st0" d="M18.6,48.8c-.2,0-.3-.1-.4-.2l.2-.4c.1,0,.2.1.4.2s.3,0,.4,0c.3,0,.5,0,.5-.3s0-.1-.1-.2-.2,0-.4,0c-.2,0-.3,0-.5,0-.1,0-.2-.1-.3-.2,0,0-.1-.2-.1-.4s0-.4.3-.5c.2-.1.4-.2.7-.2s.3,0,.5,0c.2,0,.3,0,.4.1l-.2.4c-.2-.1-.4-.2-.7-.2s-.3,0-.4,0c0,0-.1.1-.1.2s0,.1.1.2c0,0,.2,0,.4.1.2,0,.3,0,.5,0,.1,0,.2.1.3.2,0,0,.1.2.1.4s0,.4-.3.5c-.2.1-.4.2-.8.2s-.4,0-.6,0Z"/>
    <path class="st0" d="M22.6,46.8c.2.2.3.4.3.7v1.4h-.5v-.3c0,.1-.2.2-.3.2-.1,0-.3,0-.4,0s-.3,0-.5,0c-.1,0-.2-.1-.3-.2,0-.1-.1-.2-.1-.4,0-.2,0-.4.2-.5.2-.1.4-.2.7-.2h.6c0-.2,0-.3-.1-.4,0,0-.2-.1-.4-.1s-.3,0-.4,0c-.1,0-.2,0-.3.2l-.2-.4c.1,0,.3-.2.4-.2.2,0,.4,0,.5,0,.3,0,.6,0,.8.2ZM22.1,48.4c.1,0,.2-.2.2-.3v-.3h-.6c-.3,0-.5.1-.5.3s0,.2.1.2c0,0,.2,0,.3,0s.3,0,.4,0Z"/>
    <path class="st0" d="M25.3,46.5v.5s0,0-.1,0c-.2,0-.4,0-.5.2-.1.1-.2.3-.2.5v1.1h-.5v-2.3h.5v.3c.2-.2.4-.4.8-.4Z"/>
    <path class="st0" d="M27.4,46.5v.5s0,0-.1,0c-.2,0-.4,0-.5.2-.1.1-.2.3-.2.5v1.1h-.5v-2.3h.5v.3c.2-.2.4-.4.8-.4Z"/>
    <path class="st0" d="M28.6,48.7c-.2-.1-.3-.2-.4-.4-.1-.2-.2-.4-.2-.6s0-.4.2-.6c.1-.2.3-.3.4-.4.2-.1.4-.2.6-.2s.4,0,.6.2c.2.1.3.2.4.4s.2.4.2.6,0,.4-.2.6c-.1.2-.3.3-.4.4-.2.1-.4.2-.6.2s-.4,0-.6-.2ZM29.7,48.2c.1-.1.2-.3.2-.5s0-.4-.2-.5c-.1-.1-.3-.2-.5-.2s-.4,0-.5.2c-.1.1-.2.3-.2.5s0,.4.2.5c.1.1.3.2.5.2s.4,0,.5-.2Z"/>
    <path class="st0" d="M31.3,45.6h.5v3.2h-.5v-3.2Z"/>
    <path class="st0" d="M32.9,45.6h.5v3.2h-.5v-3.2Z"/>
    <path class="st0" d="M34.8,48.7c-.2-.1-.3-.2-.4-.4-.1-.2-.2-.4-.2-.6s0-.4.2-.6c.1-.2.3-.3.4-.4.2-.1.4-.2.6-.2s.4,0,.6.2c.2.1.3.2.4.4s.2.4.2.6,0,.4-.2.6c-.1.2-.3.3-.4.4-.2.1-.4.2-.6.2s-.4,0-.6-.2ZM36,48.2c.1-.1.2-.3.2-.5s0-.4-.2-.5c-.1-.1-.3-.2-.5-.2s-.4,0-.5.2c-.1.1-.2.3-.2.5s0,.4.2.5c.1.1.3.2.5.2s.4,0,.5-.2Z"/>
    <path class="st0" d="M41.4,45.6v3.2h-.5v-.3c0,.1-.2.2-.3.2-.1,0-.3,0-.4,0s-.4,0-.6-.1-.3-.2-.4-.4c-.1-.2-.2-.4-.2-.6s0-.4.2-.6c.1-.2.2-.3.4-.4.2,0,.4-.1.6-.1s.3,0,.4,0c.1,0,.2.1.3.2v-1.2h.5ZM40.5,48.3c.1,0,.2-.1.2-.3s0-.2,0-.4,0-.3,0-.4-.1-.2-.2-.3c-.1,0-.2,0-.4,0s-.2,0-.4,0c-.1,0-.2.1-.2.3s0,.2,0,.4,0,.3,0,.4.1.2.2.3c.1,0,.2,0,.4,0s.2,0,.4,0Z"/>
    <path class="st0" d="M44.6,47.9h-1.8c0,.2.1.3.2.4.1,0,.3.1.5.1s.5,0,.6-.3l.3.3c-.1.1-.2.2-.4.3-.2,0-.3,0-.5,0s-.5,0-.7-.2c-.2-.1-.3-.2-.4-.4-.1-.2-.2-.4-.2-.6s0-.4.2-.6c.1-.2.2-.3.4-.4.2-.1.4-.2.6-.2s.4,0,.6.1c.2,0,.3.2.4.4,0,.2.1.4.1.6s0,0,0,.2ZM43,47.1c-.1.1-.2.2-.2.4h1.3c0-.2,0-.3-.2-.4-.1-.1-.3-.2-.4-.2s-.3,0-.4.2Z"/>
    <path class="st0" d="M48.9,46.8c.2.2.3.4.3.8v1.3h-.5v-1.3c0-.2,0-.4-.1-.5,0-.1-.2-.2-.4-.2s-.4,0-.5.2-.2.3-.2.5v1.2h-.5v-2.3h.5v.3c0-.1.2-.2.3-.2s.3,0,.5,0c.3,0,.5,0,.7.3Z"/>
    <path class="st0" d="M52.4,47.9h-1.8c0,.2.1.3.2.4.1,0,.3.1.5.1s.5,0,.6-.3l.3.3c-.1.1-.2.2-.4.3-.2,0-.3,0-.5,0s-.5,0-.7-.2c-.2-.1-.3-.2-.4-.4-.1-.2-.2-.4-.2-.6s0-.4.2-.6c.1-.2.2-.3.4-.4.2-.1.4-.2.6-.2s.4,0,.6.1c.2,0,.3.2.4.4,0,.2.1.4.1.6s0,0,0,.2ZM50.8,47.1c-.1.1-.2.2-.2.4h1.3c0-.2,0-.3-.2-.4-.1-.1-.3-.2-.4-.2s-.3,0-.4.2Z"/>
    <path class="st0" d="M55.6,46.5v2c0,.8-.4,1.2-1.2,1.2s-.4,0-.6,0-.4-.1-.5-.2l.2-.4c.1,0,.2.2.4.2.2,0,.3,0,.5,0,.3,0,.4,0,.6-.2s.2-.3.2-.5h0c0,0-.2,0-.3.1-.1,0-.3,0-.4,0s-.4,0-.6-.1-.3-.2-.4-.4c-.1-.2-.2-.4-.2-.6s0-.4.2-.6c.1-.2.2-.3.4-.4s.4-.1.6-.1.3,0,.5,0c.1,0,.3.1.3.3v-.3h.5ZM54.8,48.1c.1-.1.2-.3.2-.5s0-.4-.2-.5c-.1-.1-.3-.2-.5-.2s-.4,0-.5.2c-.1.1-.2.3-.2.5s0,.4.2.5c.1.1.3.2.5.2s.4,0,.5-.2Z"/>
    <path class="st0" d="M57,48.7c-.2-.1-.3-.2-.4-.4-.1-.2-.2-.4-.2-.6s0-.4.2-.6c.1-.2.3-.3.4-.4.2-.1.4-.2.6-.2s.4,0,.6.2c.2.1.3.2.4.4s.2.4.2.6,0,.4-.2.6c-.1.2-.3.3-.4.4-.2.1-.4.2-.6.2s-.4,0-.6-.2ZM58.1,48.2c.1-.1.2-.3.2-.5s0-.4-.2-.5c-.1-.1-.3-.2-.5-.2s-.4,0-.5.2c-.1.1-.2.3-.2.5s0,.4.2.5c.1.1.3.2.5.2s.4,0,.5-.2Z"/>
    <path class="st0" d="M60.1,48.7c-.2-.1-.3-.2-.4-.4-.1-.2-.2-.4-.2-.6s0-.4.2-.6c.1-.2.3-.3.4-.4.2-.1.4-.2.6-.2s.4,0,.6.1c.2,0,.3.2.4.4l-.4.2c0-.1-.1-.2-.2-.2,0,0-.2,0-.3,0-.2,0-.4,0-.5.2-.1.1-.2.3-.2.5s0,.4.2.5.3.2.5.2.2,0,.3,0c0,0,.2-.1.2-.2l.4.2c0,.2-.2.3-.4.4-.2,0-.4.1-.6.1s-.5,0-.6-.2Z"/>
    <path class="st0" d="M62.6,46.1c0,0,0-.1,0-.2s0-.2,0-.2c0,0,.1,0,.2,0s.2,0,.2,0c0,0,0,.1,0,.2s0,.2,0,.2-.1,0-.2,0-.2,0-.2,0ZM62.6,46.5h.5v2.3h-.5v-2.3Z"/>
    <path class="st0" d="M64.6,48.7c-.2-.1-.3-.2-.4-.4-.1-.2-.2-.4-.2-.6s0-.4.2-.6c.1-.2.3-.3.4-.4.2-.1.4-.2.6-.2s.4,0,.6.2c.2.1.3.2.4.4s.2.4.2.6,0,.4-.2.6c-.1.2-.3.3-.4.4-.2.1-.4.2-.6.2s-.4,0-.6-.2ZM65.7,48.2c.1-.1.2-.3.2-.5s0-.4-.2-.5c-.1-.1-.3-.2-.5-.2s-.4,0-.5.2c-.1.1-.2.3-.2.5s0,.4.2.5c.1.1.3.2.5.2s.4,0,.5-.2Z"/>
    <path class="st0" d="M67.4,48.8c-.2,0-.3-.1-.4-.2l.2-.4c.1,0,.2.1.4.2s.3,0,.4,0c.3,0,.5,0,.5-.3s0-.1-.1-.2-.2,0-.4,0c-.2,0-.3,0-.5,0-.1,0-.2-.1-.3-.2,0,0-.1-.2-.1-.4s0-.4.3-.5c.2-.1.4-.2.7-.2s.3,0,.5,0c.2,0,.3,0,.4.1l-.2.4c-.2-.1-.4-.2-.7-.2s-.3,0-.4,0c0,0-.1.1-.1.2s0,.1.1.2c0,0,.2,0,.4.1.2,0,.3,0,.5,0,.1,0,.2.1.3.2,0,0,.1.2.1.4s0,.4-.3.5c-.2.1-.4.2-.8.2s-.4,0-.6,0Z"/>
  </g>
</svg>