<?xml version="1.0" encoding="UTF-8"?>
<svg id="Layer_2" xmlns="http://www.w3.org/2000/svg" version="1.1" viewBox="0 0 77.4 71.3">
  <!-- Generator: Adobe Illustrator 30.3.0, SVG Export Plug-In . SVG Version: 2.1.3 Build 182)  -->
  <defs>
    <style>
      .st0 {
        fill: #4744e9;
      }
    </style>
  </defs>
  <path class="st0" d="M38.1,43.4c.6,0,.4.5.4.8,0,3.8,0,7.6,0,11.4,0,.2,0,.4,0,.6,0,0,0,0-.1,0-.9-4.6-1.8-9.1-2.7-13.7h-2.9v1.3s0,0,.1,0c.2.2.4.4.4.6.2,4.4.3,8.8.5,13.2,0,.2,0,.4-.2.7-.1.3-.3.6-.5.9h2.9c-1.3-.8-1-1.9-1-3,0-2.4,0-4.7,0-7.1,0-1.1,0-2.3,0-3.4.2.2.3.3.3.5.9,3.5,1.7,7,2.5,10.6.2.9.6,1.5,1.4,2.1,0-.4,0-.7.1-1.1.2-3.6.4-7.3.6-10.9,0-1.5.2-3.1.3-4.6h-2.4c0,.4,0,1,.2,1Z"/>
  <path class="st0" d="M54.2,58.3c-.3,0-.5,0-.8,0v.9c.9-.1,1.6-.3,2.4-.4,1.1-.1,1.8-.6,2.3-1.6,1.6-3.2,1.9-6.6,1.5-10.1-.2-1.5-.6-2.9-1.4-4.1-.7-1.1-1.7-1.7-3-1.4-.6.1-1.2.2-1.8.4-.8.2-.9.4-.5,1.2.2,0,.5-.2.8-.3.2,5.2.4,10.2.6,15.3ZM55.7,42.6c.8,0,1.3.3,1.5,1.1.3,1.3.5,2.6.6,3.8.2,2.9.2,5.9-.4,8.8-.3,1.2-.6,1.6-1.7,1.4v-15.2Z"/>
  <path class="st0" d="M46.7,56.8c1.1-3,1.5-6.1,1-9.2-.2-1.4-.6-2.8-1.5-4-1-1.3-2.3-1.6-3.8-.9-.4.2-.7.4-1.1.5-.6.2-.7.5-.4,1,.2,0,.5-.1.8-.2.2,4.8.4,9.5.6,14.2,0,0-.2,0-.3-.1-.2.3-.4.5-.7.8,0,0,.2.2.2.2.7,0,1.4-.2,2-.1,1.7.1,2.5-.7,3.1-2.2ZM43.8,57.1c0-4.3-.1-8.6-.2-12.9,0-.3,0-.5,0-.9,1,0,1.6.4,1.8,1.3.6,3.1.8,6.3.5,9.5,0,.9-.2,1.8-.4,2.7,0,.3-.2.6-.4.8-.2.2-.6.2-.9.4,0-.3-.2-.6-.2-.9Z"/>
  <path class="st0" d="M66,57.9c0,.6.9,1.5,1.5,1.4.7,0,1.1-.7.8-1.4-.2-.4-.4-.9-.5-1.3-.8-3.3-1.5-6.6-2.2-9.9-.3-1.5-.7-3-1-4.5-.2-.8-.5-.9-1.1-.3-.3.3-.6.8-.7,1.3-.9,4.6-1.7,9.3-2.5,13.9,0,.3,0,.8-.5.6,0,0-.2.3-.2.4,0,.1,0,.4.2.4.5.2,1,.4,1.6.7-.1-.5-.3-.9-.3-1.2.1-.9.3-1.8.6-2.7,0-.2.3-.4.6-.4,1.1-.2,2.3-.3,3.6-.5.1,1.2.3,2.3.4,3.5ZM61.8,53.8c.6-3.1,1.3-6.1,1.9-9,0,0,0,0,.1,0,.5,2.9,1,5.7,1.6,8.7-1.2.1-2.4.2-3.6.4Z"/>
  <path class="st0" d="M23.8,31.6c.1.3.2.4.3.6.9,2.4,1.8,4.9,2.7,7.3.3.8.7,1.4,1.6,1.6,0-.2,0-.3,0-.4.2-2.7.3-5.5.5-8.2.1-1.1-.3-2.4.8-3.4-1,0-1.9-.1-2.9-.2.1.4.2.8.3.8.5.1.4.5.4.8,0,2.7,0,5.4,0,8.1,0,.2,0,.4,0,.6-.2-.2-.3-.4-.3-.6-.8-2.7-1.7-5.4-2.6-8.1-.1-.3-.4-.8-.6-.8-.9-.1-1.8,0-2.7,0l-.2.2c.2.3.4.6.8,1,.1,2.8.3,5.9.4,8.9,0,.2-.2.5-.3.8,0,.2,0,.6,0,.6.8,0,1.6,0,2.3,0-.2-.5-.6-1-.6-1.4,0-2.6,0-5.1,0-7.7,0-.2,0-.3.1-.6Z"/>
  <path class="st0" d="M10.2,57.5h-.8v1c1.7,0,3.3,0,5,0,.4,0,.8.2,1.3.3v-2c-.2.3-.3.7-.5.8-1,.1-2,.1-2.8.2,0-2.8,0-5.5,0-8.2,0-.2.3-.7.5-.7.5,0,1.2-.6,1.6.3v-2.1c0,0-.1,0-.2,0-.1.3-.2.5-.3.8-.4,0-.8,0-1.1-.3-.2,0-.4-.4-.5-.6,0-1,0-2,0-2.9,0-.2.2-.5.3-.6.6-.3,1.9-.1,2.5.5,0-.8.1-1.4.1-2.1,0,0-.1,0-.2-.1-.6,1.1-1.6.7-2.4.8-1.2,0-2.3,0-3.5,0v1c.3,0,.5,0,.8,0v14.2Z"/>
  <path class="st0" d="M31.4,46.2c-.1-.6-.4-1.2-.7-1.6-.9-1.3-2.7-1.3-3.4.2-1.5,3.1-1.6,6.4,0,9.5,1,1.9,2.6,1.8,3.4-.1.6-1.4.9-2.9,1.2-4-.2-1.6-.3-2.7-.6-3.9ZM29.6,53.9c0,.4,0,.9-.5.9-.6,0-.7-.4-.8-.8,0-2.2-.1-4.3-.2-6.5,0-.7,0-1.4,0-2.1,0-.4.4-.7.6-1,.3.3.7.6.7.9.2.8.2,1.7.2,2.5h-.2c0,2,0,4.1,0,6.1Z"/>
  <path class="st0" d="M18.1,22.2c.2,0,.5-.2.6-.4.7-1.7,2-2.6,3.8-2.6,1.7,0,2.8.7,3.4,2.3.1.3.5.6.9.7.5.2.9.3.8,1,0,.2.2.6.4.7,1.4.4,2.8,1,4.3,1.2,2.6.2,5.1,0,7.7,0,.1,0,.3,0,.5,0,0-4-.2-8-.3-12.1h5.3c0-.5,0-.9,0-1.3,0-.4-.1-.9,0-1.3.4-.7,0-1.1-.2-1.7-.3-.6-.6-1.2-.8-1.8-.1-.3-.4-.7-.3-1,.2-.8-.3-1.2-.7-1.6-.2-.2-.2-.5-.3-.7,0,0,0-.1,0-.2v-.3h1.2v-.5h-1.2v-1.3h-.9v1.3h-1.6v.5h1.6v1.8h.9c.3.3.6.7.6,1,0,.8.2,1.3.6,1.9.3.4.5.9.7,1.4-1,0-1.8,0-2.6,0-.8,0-1.6.3-2.4.5.2.5.3.9.3,1.2,0,.6-.4,1.2-.4,1.8,0,3.3.1,6.6.2,9.9,0,.7,0,1.4,0,2.2-.2,0-.4,0-.5,0-2.3,0-4.7.1-7,0-1.5-.1-2.9-.7-4.4-1.1-.2,0-.3-.4-.4-.7-.1-.2-.2-.7-.3-.7-1.1,0-1.4-.9-1.7-1.8,0-.2-.2-.3-.4-.4-1.8-1.9-5.6-1.3-6.8,1-.3.5-.5.9-1.1.8-.1,0-.3.2-.5.3.4,0,.7,0,1.1,0ZM41.8,10.4c0-.2.2-.4.3-.6.2,0,.3.2.5.3.1,0,.2.1.3.1.6,0,.7.4.6,1.1-.8-.5-1.2,1-1.9.5,0-.6.1-1,.2-1.4Z"/>
  <path class="st0" d="M56.7,29.1h-2.3c0,0,0,.1-.1.2.2.3.5.5.8.9,0,1.7,0,3.6,0,5.5,0,1.1,0,2.2-.2,3.3-.2,1-.8,1.6-1.5,1.5-.7,0-1.4-.9-1.5-1.8,0-.1,0-.3,0-.4,0-2.1,0-4.1,0-6.2,0-.7-.2-1.4.5-1.9-1.1,0-2.2-.2-3.3-.2,0,.3,0,.5,0,.9.7-.2.7.3.7.7,0,.6,0,1.2,0,1.7.2,1.9.3,3.8.6,5.6.3,1.6,1.6,2.4,3,2.3,1.2,0,2.2-.9,2.3-2.6.2-1.9.1-3.8.3-5.7.1-1.3-.7-2.7.7-3.9Z"/>
  <path class="st0" d="M52.2,42.5c-1.2,0-2.3-.2-3.5-.3,0,.5,0,.8,0,1.2.3,0,.5,0,.7,0v14c-.4,0-.7,0-1.1,0,0,.3,0,.6,0,.9h3.9c-.2-.3-.4-.5-.5-.5-.9,0-.8-.6-.8-1.3.2-3.4.3-6.8.5-10.2,0-1.3-.2-2.7.9-3.7,0,0,0,0,0-.2Z"/>
  <path class="st0" d="M35.3,30c.9.2,1.9-.6,2.5.7v-1.5c-2.7.2-5.3.4-8.1.6.1.6.2,1.1.3,1.6.7-1,1.1-1.2,2.6-1,.3,3.4.5,6.8.8,10.2-.4,0-.8,0-1.2,0v.8c1.4-.2,2.8,0,4.3-.5q-1.3-.6-1.3-1.9c0-2.7,0-5.4,0-8v-1Z"/>
  <path class="st0" d="M16.9,38.3q1.5,0,1.9,1.4c.1.4.2.8.3,1.2.4-.2.9-.3,1.3-.5.1,0,.3-.1.4-.2-.2-.5-.4-.9-.5-1.3-.6-2.1-1.1-4.2-1.6-6.3-.3-1.1-.6-2.3-.9-3.4-1.5.4-1.8.6-2.1,1.8-.6,2.5-1.2,5-1.8,7.6-.2.7,0,1.7-1,2.1,0,0,0,.1,0,.3.5.2,1,.3,1.5.5,0-2.1,0-3.2,2.3-3.1.1,0,.3,0,.4,0ZM14.9,37.6c.5-1.9,1-3.8,1.5-5.7,0,0,0,0,.1,0,.5,1.9,1.1,3.8,1.6,5.7h-3.3Z"/>
  <path class="st0" d="M48,25.7h4.1c0-2.1,0-4.2,0-6.3,0-.9-.6-1.5-1.4-1.7-1.4-.5-2.7.4-2.8,1.9,0,1.9,0,3.9,0,5.8,0,0,0,.2,0,.3Z"/>
  <path class="st0" d="M59.6,31c-.6,2.7-1.2,5.3-1.9,8-.2.6,0,1.4-.9,1.7,0,0,0,.2,0,.3.5.1,1,.3,1.3.4.2-.9.3-1.6.5-2.4,0-.2.3-.4.6-.4.8-.1,1.6-.2,2.3-.3.6,0,1,.1,1.1.7.1.6.2,1.2.4,2,.5-.2.9-.4,1.4-.5-.2-.5-.4-1-.5-1.5-.4-1.8-.8-3.6-1.2-5.4-.3-1.5-.6-3-1-4.5-.3.1-.6.3-.8.3-.8.2-1.1.7-1.3,1.5ZM62.2,37.6h-3.3c.5-1.9,1-3.8,1.5-5.7,0,0,.1,0,.2,0,.5,1.9,1.1,3.7,1.6,5.7Z"/>
  <path class="st0" d="M24.4,44c0,.4.2.8.3,1.2,0,0,.1,0,.2,0v-3c-.3.4-.5.8-.8,1-1.6.9-2.5,2.3-3.1,4-1,2.9-1.2,5.8-.3,8.7.5,1.4,1.4,2.3,2.9,2.6.3,0,.6.3,1,.4v-2.3c-.2.3-.4.5-.5.7-.9-.4-1.2-.8-1.5-1.9-.6-2.4-.7-4.8-.3-7.2.3-1.6.8-3.1,2.1-4.2Z"/>
  <path class="st0" d="M46.9,30.3c.2.5.3.7.5,1h.1c0-.7,0-1.3.1-2.1-.4.1-.8.3-.8.3.1.6-.4.5-.7.6-.5.3-1.1.5-1.5,1-1.6,1.6-2.3,3.7-2.1,6,.3,2.9,1.9,4.3,4.7,4.2.8,0,1-.4,1.1-1.1,0-.8.3-1.5.4-2.3h-2.4c0,0,0,.1-.1.2.2.2.4.4.7.7v1.5c-.7,0-1.3-.3-1.6-1-1-2.5-1-5,.2-7.4.3-.5.8-.9,1.3-1.5Z"/>
  <path class="st0" d="M41.1,30.6c0-.4.1-.7.6-.7.1,0,.3-.2.4-.3-.1-.1-.2-.3-.4-.3-1,0-2-.1-3-.1-.2,0-.3.3-.5.5.2.1.3.3.5.4,0,0,.2,0,.3,0v10.4c-.5.1-1.3-.4-1.2.7h3.9c0,0,0-.2,0-.2-.2,0-.5-.2-.7-.1-.7,0-.8-.3-.8-.9.3-3.1.5-6.2.8-9.3Z"/>
  <path class="st0" d="M19,49.7c-.3-1-.4-2.2-.4-3.3,0-.9.2-1.7,1-2.3.2.1.3.2.4.4v-2.3c-.3.5-.5,1-.8,1.1-1.4.4-1.7,1.7-2,2.9-.4,1.8,0,3.5.4,5.3.3,1.6.3,3.2-.6,4.7-.2.3-.5.4-.9.8,0,.6.2,1.2.9,1.5.3-.5.4-1.1.7-1.5,1.7-2.2,2.1-4.5,1.3-7.2Z"/>
  <path class="st0" d="M60.7,62.4c0,.7,0,1.5,0,2.2-.8-.7-1.3-1.4-1.9-2.1-.2-.3-.5-.6-.8-.8-.3-.2-.7-.1-.7.4,0,1.5,0,3,0,4.5.9,0,.9,0,.9-.7,0-.8,0-1.6,0-2.3.9.8,1.5,1.7,2.2,2.6.2.3.6.4,1.1.8v-5.2c-.7-.2-.8,0-.8.6Z"/>
  <path class="st0" d="M26.2,64.8c0,0-.1,0-.2,0-.3-.4-.6-.7-.9-1.1-.4-.6-.9-1.2-1.4-1.8-.2-.2-.5-.2-.8-.3,0,.2-.2.4-.2.6,0,1.3,0,2.7,0,4,0,.1,0,.2,0,.4.3,0,.5,0,.8,0v-3.2c.8.8,1.5,1.7,2.2,2.6.3.4.5.7,1.1.5v-5c-.3,0-.5,0-.8,0v3Z"/>
  <path class="st0" d="M69.1,61.6c-1.5,0-2.6,1.1-2.6,2.6,0,1.5,1.1,2.6,2.6,2.6,1.5,0,2.6-1.1,2.6-2.6,0-1.5-1.1-2.6-2.6-2.6ZM69.2,65.9c-.9,0-1.7-.8-1.7-1.7,0-.9.7-1.8,1.6-1.8.9,0,1.7.8,1.7,1.8,0,.9-.7,1.7-1.6,1.8Z"/>
  <path class="st0" d="M30.8,61.9c-.9-.2-1.8-.2-2.7-.3v5.2c.9,0,1.8,0,2.6-.2,1.1-.2,1.8-1.3,1.7-2.5,0-1.1-.7-2-1.7-2.2ZM31.3,65c-.4.7-1,.9-2.4.8v-3.1c.9-.3,1.8-.1,2.2.5.4.6.5,1.2.2,1.9Z"/>
  <path class="st0" d="M56.8,62.5c-.3-.4-.4-.7-.5-.7-1.1,0-2.2,0-3.2,0v4.9h3.5v-.8h-2.6v-1.3h2.3v-.8h-2.3v-1.2h2.9Z"/>
  <path class="st0" d="M44.6,64.5h2.3v-.8h-2.3v-1.2h2.6v-.7h-3.5v4.9h3.6v-.8h-2.7v-1.3Z"/>
  <path class="st0" d="M4.6,63.7h-2.3v-2c-.3,0-.5,0-.7,0v4.9c.6.2.9,0,.8-.7,0-.4,0-.8,0-1.3h2.3v1.9h.8v-4.9h-.9v1.9Z"/>
  <path class="st0" d="M22,62.5v-.2c0-.2-.2-.5-.3-.5-1,0-2.1,0-3.1,0v4.9h3.6c0-.3,0-.5,0-.8h-2.6v-1.2h2.3c0-.8,0-.8-.5-.8-.6,0-1.2,0-1.8,0v-1.3h2.6Z"/>
  <path class="st0" d="M58.3,22.2c1.3.5,2.2.4,2.6-.5-.8-.4-1.9-.3-2.1-1.4-.2-1.1.7-1.7,1.1-2.4-1.3-.4-2.5.3-2.9,1.7-.4,1.2,0,2.1,1.4,2.7Z"/>
  <path class="st0" d="M34.7,62c-.7,1.5-1.3,3-1.9,4.4,0,0,0,.2,0,.6.4-.4.8-.6.9-1,.5-.9,1.3-.6,2-.6.3,0,.7.4.8.6.3.5.6.7,1.2.5-.7-1.6-1.3-3.1-2-4.6-.3-.6-.9-.6-1.1,0ZM34.6,64.4c.2-.6.4-1.1.7-1.8.3.7.5,1.2.8,1.8h-1.5Z"/>
  <path class="st0" d="M8,62.1c-.4,1-.8,1.9-1.3,2.9-.2.5-.4,1.1-.7,1.6,0,0,.2.1.2.2.3-.2.6-.4.8-.7.5-1,1.4-.6,2.1-.6.3,0,.6.4.8.7.3.5.6.7,1.2.4-.7-1.6-1.3-3.1-2.1-4.6-.3-.5-.9-.4-1.1.1ZM7.8,64.6c.3-.6.5-1.1.8-1.8.3.7.5,1.2.8,1.8h-1.6Z"/>
  <path class="st0" d="M75,64c-.4-.2-.9-.3-1.3-.5-.2-.1-.3-.4-.5-.7.3-.1.5-.4.8-.4.3,0,.6.2.9.2.4.1.7,0,.7-.5-.9-.6-1.9-.8-2.6-.3-.4.3-.7.8-.8,1.2,0,.4.4.9.7,1.2.4.3.9.3,1.4.5.2.1.4.4.5.6-.3.2-.5.5-.8.5-.4,0-.8-.2-1.2-.3-.5-.2-.7,0-.8.4.8.8,1.8.9,2.8.6.7-.2,1-.7,1-1.4,0-.6-.3-1-.9-1.3Z"/>
  <path class="st0" d="M14.9,65.6c-1.1.6-2.1.2-2.4-.9-.2-.7,0-1.4.5-1.9.6-.6,1.2-.5,1.9-.1.5.3.8.3,1-.3-1.2-1.1-2.8-1-3.8.1-.9,1.1-.8,2.8.3,3.7,1.1.9,2.7.7,3.5-.4-.2-.6-.5-.4-1-.2Z"/>
  <path class="st0" d="M51.2,62.4c-.4,1-.8,2-1.2,3.1-.4-1.2-.8-2.1-1.2-3.1-.2-.5-.5-.8-1.2-.5.6,1.6,1.2,3.1,1.9,4.6.2.5.8.5,1,0,.7-1.5,1.3-3.1,1.9-4.6-.7-.2-.9-.2-1.2.5Z"/>
  <path class="st0" d="M22.5,28.2v-.5h-1.8v-5.6h-1.4c.3,2.1.3,4.1,0,6.1h3.1Z"/>
  <path class="st0" d="M24.5,26.8c1.1-.1.8.7,1,1.6.3-.4.6-.6.6-.8-.4-1.8-.8-3.6-1.2-5.5-.1,0-.2,0-.3-.1-.2.4-.6.7-.7,1.2-.4,1.6-.7,3.1-1,4.7,0,.1.1.3.2.5.4-1.5.5-1.5,1.4-1.5ZM24.2,23.8c0,0,.1,0,.2,0,.2.8.4,1.7.6,2.6h-1.4c.2-.9.4-1.8.6-2.6Z"/>
  <path class="st0" d="M26.1,58.4h5.7v-1.1h-5.7v1.1Z"/>
  <path class="st0" d="M62.1,61.7c0,.3,0,.6.1.9h1.5c0,1.2,0,2.3,0,3.4,0,.6.2.8.9.6v-4.1h1.5c0-.3,0-.5,0-.8h-4Z"/>
  <path class="st0" d="M51.3,14.6c.4.4,1,.8,1.6.9,1.1.3,1.5.7,1.6,1.8,0,.2,0,.3,0,.5.4-2.4-.2-2.7-1.7-3-.5,0-.9-.5-1.2-.8-1.1-1.4-2.8-1.3-3.7.4.3-.1.4-.2.6-.3,1.3-.7,1.8-.6,2.8.5Z"/>
  <path class="st0" d="M54.1,24.3c.1-2-.4-4,.5-5.9,0,0-.1,0-.2-.1-.2.4-.6.7-.6,1.1,0,1.6,0,3.2,0,4.8,0,.8.4,1.1,1.1,1.1.6,0,1.3,0,1.9,0,.2,0,.5.2.5.3-.1,1.2.7,1,1.3,1,.6,0,1.2,0,1.6.5.2.2.5.3.8.4-.7-1-1.7-1.4-2.9-1.3-.2,0-.6-.3-.6-.5,0-.7-.3-.8-.9-.8-.6,0-1.2,0-1.8,0-.5,0-.8-.2-.8-.7Z"/>
  <path class="st0" d="M16.6,66.7h.7v-4.9h-.7v4.9Z"/>
  <path class="st0" d="M40.4,60.5v7.4c0,0,.2,0,.2,0,.2-2.5.1-4.9,0-7.4,0,0-.2,0-.2,0Z"/>
  <path class="st0" d="M49.6,14.3c-.2.5-.4,1-.6,1.5h1.7c-.2-.6-.4-1.1-.6-1.6,0,0-.5,0-.5,0Z"/>
  <path class="st0" d="M45.3,14.3v1.7c.6-.2,1.2-.4,1.8-.7.2,0,.4-.3.5-.4-.2,0-.5-.2-.7-.2-.5.2-.9.4-1.5.7,0-.5-.1-.9-.2-1.1Z"/>
  <path class="st0" d="M41.8,7.1c.6-.7.6-.8,0-1.8v1.8Z"/>
</svg>